<svg width="21" height="21" viewBox="0 0 21 21" fill="none" xmlns="http://www.w3.org/2000/svg">
<path d="M18 2.375H3C2.30964 2.375 1.75 2.93464 1.75 3.625V4.25C1.75 4.94036 2.30964 5.5 3 5.5H18C18.6904 5.5 19.25 4.94036 19.25 4.25V3.625C19.25 2.93464 18.6904 2.375 18 2.375Z" fill="white"/>
<path d="M3.40818 6.75C3.36427 6.74977 3.32079 6.75879 3.2806 6.77648C3.24041 6.79417 3.20439 6.82014 3.17491 6.85268C3.14542 6.88523 3.12313 6.92362 3.10948 6.96536C3.09582 7.0071 3.09112 7.05125 3.09568 7.09493L4.12342 16.9606C4.12321 16.9634 4.12321 16.9663 4.12342 16.9691C4.17712 17.4255 4.39649 17.8462 4.7399 18.1514C5.08331 18.4567 5.52685 18.6252 5.98631 18.625H15.0133C15.4726 18.625 15.9159 18.4564 16.2592 18.1512C16.6024 17.8459 16.8217 17.4253 16.8754 16.9691V16.9609L17.9015 7.09493C17.9061 7.05125 17.9014 7.0071 17.8877 6.96536C17.8741 6.92362 17.8518 6.88523 17.8223 6.85268C17.7928 6.82014 17.7568 6.79417 17.7166 6.77648C17.6764 6.75879 17.633 6.74977 17.589 6.75H3.40818ZM13.1293 13.8082C13.1887 13.8659 13.236 13.9349 13.2686 14.0111C13.3011 14.0873 13.3181 14.1692 13.3187 14.252C13.3193 14.3349 13.3034 14.417 13.272 14.4937C13.2405 14.5703 13.1942 14.6399 13.1356 14.6985C13.077 14.7571 13.0073 14.8034 12.9307 14.8348C12.854 14.8662 12.7719 14.8821 12.689 14.8814C12.6062 14.8808 12.5243 14.8637 12.4481 14.8312C12.3719 14.7986 12.303 14.7512 12.2453 14.6918L10.5 12.9465L8.75427 14.6918C8.63652 14.8062 8.47849 14.8697 8.31431 14.8685C8.15014 14.8674 7.99301 14.8016 7.8769 14.6856C7.76078 14.5695 7.69499 14.4124 7.69376 14.2483C7.69252 14.0841 7.75593 13.926 7.87029 13.8082L9.61599 12.0625L7.87029 10.3168C7.75593 10.199 7.69252 10.0409 7.69376 9.87676C7.69499 9.71259 7.76078 9.55549 7.8769 9.43942C7.99301 9.32336 8.15014 9.25764 8.31431 9.25648C8.47849 9.25532 8.63652 9.3188 8.75427 9.43321L10.5 11.1785L12.2453 9.43321C12.363 9.3188 12.5211 9.25532 12.6853 9.25648C12.8494 9.25764 13.0066 9.32336 13.1227 9.43942C13.2388 9.55549 13.3046 9.71259 13.3058 9.87676C13.307 10.0409 13.2436 10.199 13.1293 10.3168L11.3836 12.0625L13.1293 13.8082Z" fill="white"/>
</svg>
